<?xml version="1.0" standalone="no"?>
<!DOCTYPE svg PUBLIC "-//W3C//DTD SVG 20010904//EN"
 "http://www.w3.org/TR/2001/REC-SVG-20010904/DTD/svg10.dtd">
<svg version="1.0" xmlns="http://www.w3.org/2000/svg"
 width="374.000000pt" height="283.000000pt" viewBox="0 0 374.000000 283.000000"
 preserveAspectRatio="xMidYMid meet">
<metadata>
Created by potrace 1.16, written by Peter Selinger 2001-2019
</metadata>
<g transform="translate(0.000000,283.000000) scale(0.100000,-0.100000)"
fill="#000000" stroke="none">
<path d="M2187 2383 c-4 -3 -7 -250 -7 -547 l0 -541 220 220 220 220 0 327 0
328 -213 0 c-118 0 -217 -3 -220 -7z"/>
<path d="M2965 2071 c-146 -28 -165 -34 -165 -54 1 -37 15 -40 110 -23 51 10
94 16 96 14 5 -5 -1247 -1242 -1260 -1246 -10 -2 -476 524 -499 564 -4 8 -16
14 -25 14 -10 0 -99 -82 -200 -183 -182 -182 -182 -182 -182 -227 l0 -45 188
188 189 188 249 -290 c137 -159 255 -292 262 -295 8 -3 24 2 37 12 13 10 306
298 651 640 345 342 629 620 631 619 1 -2 -9 -41 -23 -86 -23 -74 -24 -85 -11
-99 9 -8 22 -12 30 -9 18 7 110 286 105 319 -4 31 -18 31 -183 -1z"/>
<path d="M1010 1555 c0 -157 3 -285 7 -285 4 0 46 38 94 85 48 48 95 85 106
85 26 0 39 -12 128 -115 42 -49 83 -97 91 -105 12 -12 14 31 14 303 l0 317
-220 0 -220 0 0 -285z"/>
<path d="M1600 1244 l0 -216 67 -76 c37 -42 71 -77 75 -77 5 0 73 62 153 138
l145 138 0 155 0 154 -220 0 -220 0 0 -216z"/>
</g>
</svg>
