<?xml version="1.0" standalone="no"?>
<!DOCTYPE svg PUBLIC "-//W3C//DTD SVG 20010904//EN"
 "http://www.w3.org/TR/2001/REC-SVG-20010904/DTD/svg10.dtd">
<svg version="1.0" xmlns="http://www.w3.org/2000/svg"
 width="408.000000pt" height="373.000000pt" viewBox="0 0 408.000000 373.000000"
 preserveAspectRatio="xMidYMid meet">
<metadata>
Created by potrace 1.16, written by Peter Selinger 2001-2019
</metadata>
<g transform="translate(0.000000,373.000000) scale(0.100000,-0.100000)"
fill="#000000" stroke="none">
<path d="M0 1865 l0 -1865 2040 0 2040 0 0 1865 0 1865 -2040 0 -2040 0 0
-1865z m2830 1112 l0 -382 -222 -220 c-123 -121 -238 -234 -255 -250 l-33 -29
0 632 0 632 255 0 255 0 0 -383z m610 28 c11 -13 4 -44 -40 -183 -29 -92 -58
-175 -64 -185 -7 -11 -20 -17 -36 -15 -36 4 -36 37 0 143 l30 90 -152 -150
c-84 -82 -421 -417 -748 -742 -428 -427 -602 -593 -618 -593 -22 0 -117 104
-458 504 l-149 175 -222 -222 -223 -222 0 55 0 55 212 212 c147 147 220 213
235 213 16 0 96 -87 314 -339 l292 -340 732 727 c403 400 731 728 730 730 -2
2 -49 -6 -105 -17 -107 -20 -125 -19 -134 5 -14 37 10 51 136 74 68 12 139 26
158 30 57 13 97 11 110 -5z m-1960 -652 c0 -312 -2 -375 -13 -363 -7 8 -42 49
-77 90 -180 212 -174 211 -317 68 l-103 -103 0 343 0 342 255 0 255 0 0 -377z
m680 -246 l0 -172 -173 -173 -173 -173 -87 100 -87 100 0 245 0 246 260 0 260
0 0 -173z m728 -1044 c7 -14 9 -203 3 -270 -1 -16 -33 -17 -47 -3 -8 8 -15 6
-24 -5 -7 -8 -23 -15 -36 -15 -57 0 -88 137 -43 194 22 27 57 34 77 14 9 -9
12 -3 12 29 0 23 3 48 6 57 8 21 41 20 52 -1z m-1678 -13 c22 -22 27 -79 8
-98 -28 -28 -58 -8 -58 39 0 28 -17 23 -35 -11 -17 -33 -20 -126 -5 -135 6 -4
18 -1 26 6 14 11 14 13 0 21 -9 5 -16 18 -16 28 0 23 34 34 84 28 31 -3 35 -1
40 24 7 36 34 48 52 23 11 -15 17 -16 26 -7 19 19 66 14 80 -7 11 -18 13 -18
39 10 36 38 79 39 108 2 28 -35 35 -64 26 -119 -19 -131 -152 -124 -163 9 l-4
52 -36 -1 c-45 -3 -62 -25 -62 -83 0 -55 -11 -74 -36 -69 -14 2 -21 16 -28 56
-5 28 -12 52 -15 52 -3 0 -17 -21 -31 -47 -84 -159 -230 7 -150 171 34 71 107
99 150 56z m914 -36 c9 -50 10 -51 45 -50 44 1 61 -26 61 -101 0 -61 -14 -103
-34 -103 -22 0 -30 19 -36 80 -4 40 -9 55 -20 55 -11 0 -17 -15 -21 -52 -9
-70 -15 -83 -38 -83 -28 0 -34 31 -29 153 5 114 19 160 46 155 12 -2 20 -18
26 -54z m-136 9 c2 -23 9 -33 24 -35 34 -5 33 -28 -1 -41 -31 -12 -32 -13 -29
-72 3 -57 4 -60 31 -63 18 -2 27 -9 27 -22 0 -21 -19 -30 -63 -30 -53 0 -67
23 -67 107 0 64 -2 74 -17 71 -11 -2 -21 -22 -29 -61 -18 -77 -40 -117 -65
-117 -19 0 -28 15 -53 84 -6 16 -11 12 -36 -27 -52 -82 -90 -54 -104 78 -6 46
-4 65 8 80 20 28 48 10 59 -39 l9 -36 22 42 c11 24 28 43 36 43 8 0 24 -19 36
-41 l21 -41 14 41 c12 35 18 41 44 42 57 2 65 4 65 13 0 5 5 22 10 36 15 39
54 31 58 -12z m428 15 c4 -13 7 -62 5 -110 l-2 -87 54 6 c44 4 55 2 60 -11 9
-23 -23 -52 -70 -65 -61 -17 -91 -14 -104 12 -16 29 -16 191 0 240 14 43 45
51 57 15z m264 -48 c37 -37 19 -100 -38 -130 -18 -10 -29 -21 -23 -24 6 -4 24
0 41 9 17 9 35 13 40 10 18 -11 10 -43 -16 -64 -67 -53 -144 -4 -144 90 0 54
19 102 47 118 29 17 72 12 93 -9z m370 0 c30 -30 26 -76 -9 -111 -16 -16 -37
-29 -47 -29 -14 0 -15 -3 -6 -12 10 -10 19 -8 42 5 33 20 50 16 50 -13 0 -24
-46 -60 -77 -60 -93 0 -128 145 -53 220 26 26 74 26 100 0z m99 -17 c8 -15 12
-16 22 -5 18 16 64 15 79 -3 21 -26 8 -50 -29 -51 -44 -1 -61 -25 -61 -83 0
-25 -4 -52 -9 -59 -14 -23 -45 -9 -52 23 -11 49 -10 155 1 176 13 24 36 25 49
2z m-59 -308 c0 -13 -116 -15 -985 -15 -869 0 -985 2 -985 15 0 13 116 15 985
15 869 0 985 -2 985 -15z"/>
</g>
</svg>
