<?xml version="1.0" standalone="no"?>
<!DOCTYPE svg PUBLIC "-//W3C//DTD SVG 20010904//EN"
 "http://www.w3.org/TR/2001/REC-SVG-20010904/DTD/svg10.dtd">
<svg version="1.0" xmlns="http://www.w3.org/2000/svg"
 width="400.000000pt" height="379.000000pt" viewBox="0 0 400.000000 379.000000"
 preserveAspectRatio="xMidYMid meet">
<metadata>
Created by potrace 1.16, written by Peter Selinger 2001-2019
</metadata>
<g transform="translate(0.000000,379.000000) scale(0.100000,-0.100000)"
fill="#000000" stroke="none">
<path d="M2297 3283 c-4 -3 -7 -287 -7 -631 l0 -624 255 249 254 248 1 383 0
382 -248 0 c-137 0 -252 -3 -255 -7z"/>
<path d="M3182 2916 c-172 -33 -195 -44 -168 -82 14 -18 17 -18 121 -1 59 10
108 17 110 15 2 -2 -326 -331 -730 -731 l-733 -727 -293 340 c-209 243 -299
340 -313 340 -14 0 -92 -71 -229 -208 l-207 -207 0 -55 0 -55 219 219 218 218
24 -30 c135 -168 564 -652 578 -652 9 0 353 333 763 740 411 407 749 740 751
740 3 0 -8 -39 -24 -87 -34 -100 -34 -137 -3 -141 11 -2 25 3 31 10 6 7 36 91
68 186 61 186 62 203 6 201 -14 -1 -99 -15 -189 -33z"/>
<path d="M940 2320 c0 -181 3 -330 6 -330 3 0 42 39 86 86 89 93 125 118 162
108 14 -3 66 -55 126 -124 56 -66 108 -124 116 -131 12 -10 14 42 14 355 l0
366 -255 0 -255 0 0 -330z"/>
<path d="M1620 1961 l0 -249 82 -96 82 -97 168 168 168 168 0 177 0 178 -250
0 -250 0 0 -249z"/>
<path d="M2817 1003 c-3 -4 -8 -29 -12 -55 -7 -44 -8 -46 -30 -36 -33 15 -53
4 -70 -37 -19 -45 -19 -89 1 -131 19 -41 56 -54 83 -30 13 12 20 13 28 5 7 -7
19 -9 28 -6 13 6 15 26 13 149 -3 124 -5 143 -20 146 -9 2 -18 -1 -21 -5z"/>
<path d="M1066 968 c-68 -68 -75 -190 -14 -255 32 -34 70 -30 107 12 17 20 31
43 31 53 0 9 9 23 20 30 19 12 20 10 20 -42 0 -37 5 -58 16 -67 24 -20 44 13
44 72 0 54 17 74 64 74 24 0 32 5 34 22 5 35 -41 53 -78 31 -27 -15 -28 -15
-33 4 -9 32 -41 19 -45 -18 -3 -31 -4 -31 -46 -27 -47 6 -86 -9 -86 -33 0 -8
7 -17 15 -20 12 -5 13 -10 4 -20 -46 -55 -68 65 -24 132 22 34 43 30 47 -8 4
-46 39 -46 52 0 7 27 6 38 -11 60 -31 42 -75 42 -117 0z"/>
<path d="M2040 968 c-6 -18 -14 -80 -17 -138 -4 -84 -2 -109 10 -125 22 -29
47 -4 47 47 0 45 14 78 34 78 19 0 26 -23 26 -81 0 -36 4 -51 16 -56 9 -3 20
0 25 8 12 19 11 156 -1 180 -12 21 -41 25 -71 9 -18 -10 -19 -7 -19 38 0 72
-30 96 -50 40z"/>
<path d="M1912 978 c-7 -7 -12 -21 -12 -33 0 -24 -56 -52 -63 -31 -7 19 -41
-8 -51 -40 -5 -16 -11 -36 -13 -44 -3 -9 -11 1 -19 25 -8 22 -21 47 -30 55
-13 13 -17 12 -34 -10 -11 -14 -22 -37 -25 -52 -9 -39 -25 -35 -25 5 0 41 -21
73 -44 64 -28 -11 -19 -157 14 -207 13 -21 37 -5 74 50 l29 43 13 -42 c13 -44
30 -71 45 -71 17 0 47 63 60 125 11 54 14 61 33 58 19 -4 21 -11 21 -80 0 -62
3 -77 19 -89 26 -18 80 -18 96 1 16 19 4 35 -25 35 -29 0 -39 27 -31 84 6 35
12 44 38 54 26 10 29 14 18 27 -7 8 -20 15 -30 15 -13 0 -17 6 -13 20 5 19
-11 50 -26 50 -4 0 -12 -5 -19 -12z"/>
<path d="M2338 968 c-15 -29 -23 -192 -11 -238 9 -34 11 -35 56 -33 56 2 112
31 112 59 0 17 -6 19 -52 17 l-53 -2 0 90 c0 117 -22 161 -52 107z"/>
<path d="M2546 910 c-63 -76 -31 -210 50 -210 27 0 84 46 84 67 0 11 -7 14
-22 10 -69 -18 -78 -19 -78 -9 0 6 8 13 18 16 26 9 59 46 67 76 4 18 0 34 -15
53 -30 38 -70 36 -104 -3z"/>
<path d="M2920 912 c-75 -75 -27 -231 64 -208 32 8 66 40 66 62 0 12 -6 15
-25 10 -14 -3 -36 -9 -50 -12 -34 -9 -32 11 3 25 29 12 62 57 62 84 0 8 -9 26
-21 41 -27 34 -63 34 -99 -2z"/>
<path d="M1432 910 c-49 -46 -53 -150 -7 -196 48 -48 110 -14 125 66 20 109
-53 190 -118 130z"/>
<path d="M3077 913 c-4 -3 -7 -50 -7 -103 0 -77 3 -100 16 -111 24 -20 44 13
44 72 0 54 17 74 64 74 24 0 32 5 34 22 5 35 -41 53 -78 31 -27 -15 -28 -15
-33 3 -5 19 -27 25 -40 12z"/>
<path d="M1090 595 c0 -13 116 -15 985 -15 869 0 985 2 985 15 0 13 -116 15
-985 15 -869 0 -985 -2 -985 -15z"/>
</g>
</svg>
